<svg xmlns="http://www.w3.org/2000/svg" viewBox="0 0 256 256" width="256" height="256">
  <!-- Black rounded background -->
  <rect width="256" height="256" rx="48" fill="#1a1a1a"/>
  <!-- HH Logo in white, centered and scaled -->
  <g fill="none" stroke="#ffffff" stroke-linecap="round" stroke-linejoin="round" transform="translate(28, 28) scale(1)">
    <path d="M48 60 C46 62, 43 75, 42 90 C41 105, 41 120, 44 135 C45 138, 47 140, 49 140" stroke-width="9"/>
    <path d="M100 20 C98 22, 95 45, 94 70 C93 100, 93 130, 96 160 C97 165, 99 168, 101 168" stroke-width="10"/>
    <path d="M152 60 C150 62, 147 75, 146 90 C145 105, 145 120, 148 135 C149 138, 151 140, 153 140" stroke-width="9"/>
    <line x1="42" y1="100" x2="152" y2="100" stroke-width="5"/>
  </g>
</svg>
